<svg xmlns="http://www.w3.org/2000/svg" width="11.259" height="10.008" viewBox="0 0 11.259 10.008"><defs><style>.a,.b{fill:#f7f7f7;}.a{opacity:0.4;}</style></defs><path class="a" d="M1.968,192H0l4.275,4.773a.06.06,0,0,0,.079.013.055.055,0,0,0,.018-.075Zm7.322,0-2.4,4.712a.055.055,0,0,0,.022.07.06.06,0,0,0,.076-.01L11.259,192ZM2.9,192l2.68,5.956a.06.06,0,0,0,.108,0L8.362,192Z" transform="translate(0 -187.982)"/><path class="b" d="M1.769,0,0,3H1.976L3.329,0ZM9.49,0H7.93L9.282,3h1.976ZM4.271,0,2.918,3H8.34L6.988,0Z"/></svg>