<svg version="1.2" xmlns="http://www.w3.org/2000/svg" viewBox="0 0 229 22" width="229" height="22">
	<title>emp-portal-logo-svg</title>
	<style>
		tspan { white-space:pre } 
		.s0 { fill: #ffffff } 
		.s1 { fill: #2697d4 } 
		.s2 { fill: #fcb655 } 
		.s3 { fill: #00a79e } 
		.s4 { fill: #f16a4b } 
		.s5 { fill: #67b549 } 
		.s6 { fill: #4666b0 } 
		.t7 { font-size: 19px;fill: #e86d27;font-family: "Helvetica Neue" } 
	</style>
	<g id="Group_16783">
		<g id="hotech">
			<path id="Path_404" class="s0" d="m0 3.5q0-0.3 0.1-0.5q0.1-0.3 0.3-0.5q0.2-0.2 0.4-0.3q0.3-0.1 0.5-0.1q0.3 0 0.6 0.1q0.2 0.1 0.4 0.3q0.2 0.2 0.3 0.5q0.1 0.2 0.1 0.5v5.1q0.3-0.5 0.7-0.9q0.4-0.4 0.9-0.6q0.5-0.3 1-0.5q0.5-0.1 1.1-0.1c2.7 0 4.2 1.8 4.2 4.5v6.3q0 0.3-0.1 0.5q-0.1 0.3-0.3 0.5q-0.2 0.2-0.4 0.3q-0.3 0.1-0.5 0.1q-0.3 0-0.6-0.1q-0.2-0.1-0.4-0.3q-0.2-0.2-0.3-0.5q-0.1-0.2-0.1-0.5v-5.5c0-1.8-0.9-2.8-2.5-2.8q-0.6 0-1.1 0.2q-0.5 0.2-0.9 0.6q-0.4 0.5-0.6 1q-0.2 0.5-0.1 1.1v5.4c0 0.4-0.1 0.7-0.4 1c-0.2 0.2-0.6 0.4-0.9 0.4c-0.4 0-0.7-0.2-1-0.4c-0.3-0.3-0.4-0.6-0.4-1z" />
			<path id="Path_405" class="s0" d="m27 15.3v-6.2h-0.4c-0.4 0-0.6-0.1-0.9-0.4c-0.2-0.2-0.3-0.5-0.3-0.8c0-0.3 0.1-0.6 0.3-0.8c0.3-0.2 0.5-0.3 0.9-0.3h0.4v-2.1c0-0.3 0.1-0.7 0.4-0.9c0.3-0.3 0.6-0.4 1-0.4c0.3 0 0.7 0.1 0.9 0.4c0.3 0.2 0.4 0.6 0.4 0.9v2h2.1c0.3 0 0.6 0.2 0.8 0.4c0.3 0.2 0.4 0.5 0.4 0.8c0 0.3-0.1 0.6-0.4 0.8c-0.2 0.3-0.5 0.4-0.8 0.4h-2.1v5.8q0 0.3 0.1 0.6q0.1 0.3 0.3 0.5q0.2 0.2 0.5 0.3q0.3 0.1 0.6 0q0.1 0 0.1 0q0.1 0 0.2 0q0.1 0 0.2 0q0.1 0 0.1 0q0.3 0 0.5 0.1q0.2 0 0.3 0.2q0.2 0.1 0.3 0.4q0.1 0.2 0.1 0.4q0 0.2-0.1 0.3q0 0.2-0.1 0.3q-0.1 0.2-0.2 0.3q-0.2 0.1-0.3 0.1q-0.2 0.1-0.5 0.2q-0.2 0-0.4 0.1q-0.3 0-0.5 0q-0.2 0.1-0.5 0.1c-2 0-3.4-0.9-3.4-3.5z" />
			<path id="Path_406" fill-rule="evenodd" class="s0" d="m39.1 18.8q-1.2 0.1-2.3-0.4q-1.1-0.4-2-1.3q-0.9-0.9-1.3-2q-0.5-1.2-0.4-2.4q-0.1-1.2 0.3-2.4q0.5-1.1 1.3-1.9q0.8-0.9 1.9-1.4q1.1-0.5 2.3-0.5q1.1 0 2.2 0.4q1 0.5 1.8 1.3q0.8 0.8 1.2 1.9q0.4 1.1 0.4 2.2q0 0.3-0.1 0.5q-0.1 0.2-0.3 0.4q-0.1 0.2-0.4 0.3q-0.2 0.1-0.5 0.1h-7.4q0.1 0.6 0.4 1.2q0.2 0.6 0.7 1q0.5 0.4 1.1 0.6q0.6 0.2 1.2 0.2q0.4 0 0.8 0q0.3-0.1 0.7-0.2q0.4-0.2 0.7-0.4q0.3-0.2 0.6-0.4q0.1-0.1 0.2-0.1q0-0.1 0.1-0.1q0.1 0 0.2 0q0.1-0.1 0.2-0.1q0.2 0 0.4 0.1q0.2 0.1 0.4 0.3q0.1 0.1 0.2 0.3q0.1 0.2 0.1 0.4q0 0.2 0 0.3q-0.1 0.1-0.1 0.2q-0.1 0.1-0.1 0.2q-0.1 0.1-0.2 0.2q-0.4 0.4-0.9 0.7q-0.5 0.3-1.1 0.5q-0.5 0.2-1.1 0.3q-0.6 0.1-1.2 0zm2.7-7c-0.1-1.7-1.2-3.1-3-3.1c-1.6 0-2.8 1.3-3 3.1z" />
			<path id="Path_407" class="s0" d="m45.3 12.7q-0.1-1.2 0.4-2.4q0.5-1.1 1.3-2q0.9-0.9 2-1.3q1.2-0.5 2.4-0.5q0.6 0 1.1 0.1q0.6 0.1 1.1 0.3q0.6 0.1 1 0.4q0.5 0.3 1 0.7q0.1 0.1 0.1 0.2q0.1 0.1 0.2 0.2q0 0.1 0 0.3q0.1 0.1 0.1 0.2q0 0.3-0.1 0.5q-0.1 0.2-0.3 0.4q-0.2 0.2-0.4 0.3q-0.2 0.1-0.5 0q-0.1 0-0.2 0q-0.1 0-0.2 0q-0.1-0.1-0.2-0.1q-0.1-0.1-0.2-0.1q-0.2-0.3-0.5-0.4q-0.3-0.2-0.7-0.4q-0.3-0.1-0.6-0.2q-0.4 0-0.7 0q-0.7 0-1.4 0.3q-0.6 0.3-1.1 0.8q-0.5 0.6-0.7 1.3q-0.3 0.6-0.2 1.3v0.1q-0.1 0.7 0.2 1.4q0.2 0.7 0.7 1.2q0.5 0.6 1.2 0.9q0.7 0.3 1.4 0.3q0.4 0 0.7-0.1q0.4-0.1 0.7-0.2q0.4-0.1 0.7-0.3q0.3-0.2 0.5-0.5q0.3-0.2 0.6-0.3q0.4 0 0.7 0.1q0.3 0.2 0.5 0.5q0.2 0.3 0.2 0.6q0 0.1-0.1 0.2q0 0.2 0 0.3q-0.1 0.1-0.2 0.2q0 0.1-0.1 0.2q-0.5 0.4-1 0.7q-0.4 0.3-1 0.5q-0.6 0.3-1.1 0.4q-0.6 0.1-1.2 0q-1.2 0.1-2.4-0.4q-1.1-0.5-2-1.3q-0.8-0.9-1.3-2q-0.5-1.1-0.4-2.4z" />
			<path id="Path_408" class="s0" d="m57.1 3.5q0-0.3 0.1-0.5q0.1-0.3 0.3-0.5q0.2-0.2 0.4-0.3q0.3-0.1 0.6-0.1q0.2 0 0.5 0.1q0.2 0.1 0.4 0.3q0.2 0.2 0.3 0.5q0.1 0.2 0.1 0.5v5.1q0.3-0.5 0.7-0.9q0.4-0.4 0.9-0.6q0.5-0.3 1-0.5q0.6-0.1 1.1-0.1c2.7 0 4.2 1.8 4.2 4.5v6.3q0 0.3-0.1 0.5q-0.1 0.3-0.3 0.5q-0.2 0.2-0.4 0.3q-0.3 0.1-0.5 0.1q-0.3 0-0.5-0.1q-0.3-0.1-0.5-0.3q-0.2-0.2-0.3-0.5q-0.1-0.2-0.1-0.5v-5.5c0-1.8-0.9-2.8-2.5-2.8q-0.6 0-1.1 0.2q-0.5 0.2-0.9 0.6q-0.4 0.5-0.6 1q-0.1 0.5-0.1 1.1v5.4c0 0.4-0.1 0.7-0.4 1c-0.2 0.2-0.6 0.4-0.9 0.4c-0.4 0-0.7-0.2-1-0.4c-0.2-0.3-0.4-0.6-0.4-1z" />
			<path id="Path_409" class="s1" d="m24.5 15.8q-0.1 0.1-0.1 0.2q-0.1 0.1-0.2 0.2q-0.1 0.1-0.2 0.2q-0.1 0-0.2 0.1q-0.2 0.1-0.5 0.2q-0.2 0.1-0.5 0.1q-0.2 0-0.5-0.1q-0.2-0.1-0.4-0.2q-0.4-0.2-0.7-0.5q-0.3-0.3-0.5-0.6q-0.2-0.4-0.3-0.8q-0.1-0.4-0.1-0.8v-0.4l0.4-0.2q0.3-0.2 0.7-0.3q0.4-0.1 0.8-0.1q0.5 0 0.8 0.1q0.4 0.1 0.8 0.3q0.3 0.2 0.6 0.5q0.2 0.3 0.3 0.6q0.1 0.4 0 0.8q0 0.4-0.2 0.7z" />
			<path id="Path_410" class="s2" d="m16.4 10.7v0.5l-0.3 0.2q-0.4 0.2-0.8 0.3q-0.4 0.1-0.8 0.1q-0.4 0-0.8-0.1q-0.4-0.1-0.7-0.3c-0.5-0.3-0.8-0.7-1-1.2c-0.1-0.5 0-1 0.2-1.5c0.3-0.4 0.7-0.8 1.2-0.9c0.5-0.1 1 0 1.5 0.2q0.4 0.2 0.6 0.5q0.3 0.3 0.5 0.7q0.2 0.3 0.3 0.7q0.1 0.4 0.1 0.8z" />
			<path id="Path_411" class="s3" d="m24.5 8.8q0.2 0.4 0.2 0.7q0 0.4-0.1 0.8q-0.1 0.3-0.3 0.6q-0.3 0.3-0.6 0.5q-0.3 0.2-0.7 0.3q-0.4 0.1-0.8 0.1q-0.4 0-0.7-0.1q-0.4-0.1-0.7-0.3l-0.5-0.2v-0.6q0-0.4 0.1-0.7q0.1-0.4 0.3-0.8q0.2-0.3 0.5-0.6q0.2-0.2 0.6-0.4l0.1-0.1q0.3-0.2 0.7-0.2q0.4-0.1 0.8 0q0.3 0.2 0.7 0.4q0.3 0.3 0.4 0.6z" />
			<path id="Path_412" class="s4" d="m16 13.1l0.4 0.3v0.5q0 0.4-0.1 0.8q-0.1 0.3-0.3 0.7q-0.1 0.3-0.4 0.6q-0.3 0.3-0.6 0.4q-0.4 0.2-0.7 0.3q-0.4 0.1-0.8 0q-0.4-0.1-0.7-0.3q-0.3-0.2-0.5-0.5q-0.2-0.4-0.3-0.8q-0.1-0.3 0-0.7q0.1-0.4 0.4-0.7q0.2-0.4 0.6-0.6q0.4-0.2 0.8-0.3q0.3-0.1 0.7-0.1q0.4 0 0.8 0.1q0.3 0.1 0.7 0.3z" />
			<path id="Path_413" class="s5" d="m20.3 7.1q0 0.4-0.1 0.8q-0.1 0.4-0.3 0.8q-0.2 0.3-0.5 0.6q-0.3 0.3-0.7 0.5l-0.4 0.2l-0.3-0.2q-0.4-0.2-0.7-0.5q-0.2-0.2-0.5-0.6q-0.2-0.4-0.3-0.7q-0.1-0.4-0.1-0.9q0-0.4 0.2-0.7q0.1-0.4 0.4-0.6q0.3-0.3 0.6-0.4q0.4-0.2 0.7-0.2q0.4 0 0.8 0.1q0.4 0.2 0.6 0.5q0.3 0.2 0.5 0.6q0.1 0.3 0.1 0.7z" />
			<path id="Path_414" class="s6" d="m18.7 14.7q0.4 0.2 0.7 0.5q0.3 0.3 0.5 0.6q0.2 0.4 0.3 0.8q0.1 0.4 0.1 0.8q0 0.2-0.1 0.5q0 0.2-0.2 0.4q-0.1 0.3-0.3 0.4q-0.2 0.2-0.4 0.3q-0.1 0.1-0.2 0.2q-0.1 0-0.2 0q-0.2 0.1-0.3 0.1q-0.1 0-0.2 0q-0.4 0-0.8-0.1q-0.3-0.2-0.6-0.5q-0.3-0.2-0.4-0.6q-0.2-0.3-0.2-0.7q0-0.4 0.1-0.8q0.2-0.4 0.4-0.8q0.2-0.3 0.5-0.6q0.2-0.3 0.6-0.5l0.4-0.2z" />
		</g>
		<text id="Purchasing Portal" style="transform: matrix(1,0,0,1,74,18)" >
			<tspan x="0" y="0" class="t7">Supplier Portal
</tspan>
		</text>
	</g>
</svg>