<svg xmlns="http://www.w3.org/2000/svg" width="42.813" height="42.813" viewBox="0 0 42.813 42.813"><defs><style>.a{fill:#269dd4;}</style></defs><path class="a" d="M306.836,260a.836.836,0,1,0,.836.836A.837.837,0,0,0,306.836,260Zm0,0" transform="translate(-280.413 -238.259)"/><path class="a" d="M8.544,30.921.182,41.457a.836.836,0,0,0,.655,1.356H41.977a.836.836,0,0,0,.655-1.356L34.27,30.921a.836.836,0,0,0-.655-.317H26.291L32.544,20.8a13.379,13.379,0,1,0-22.274,0L16.524,30.6H9.2A.836.836,0,0,0,8.544,30.921ZM5.422,37.545h5.056l-2.854,3.6H2.568ZM17.59,32.277l2.292,3.6H13.94l2.854-3.6Zm7.634,0h.8l2.854,3.6H22.932ZM30.2,37.545l2.854,3.6H9.759l2.854-3.6Zm4.989,3.6-2.854-3.6h5.056l2.854,3.6Zm.875-5.268H31.009l-2.854-3.6h5.056Zm-24.4-16a11.707,11.707,0,1,1,19.482,0l-.01.015L21.407,35.153,11.676,19.89Zm2.993,12.4-2.854,3.6H6.749l2.854-3.6Zm0,0" transform="translate(-0.001)"/><path class="a" d="M164.362,76.724A8.362,8.362,0,1,0,156,68.362,8.363,8.363,0,0,0,164.362,76.724Zm0-15.051a6.69,6.69,0,1,1-6.69,6.69A6.7,6.7,0,0,1,164.362,61.672Zm0,0" transform="translate(-142.955 -54.983)"/><path class="a" d="M250.355,292.808a.836.836,0,0,0-1.148.285l-3.091,5.128a.836.836,0,1,0,1.432.863l3.091-5.128A.836.836,0,0,0,250.355,292.808Zm0,0" transform="translate(-225.426 -268.213)"/></svg>