<svg xmlns="http://www.w3.org/2000/svg" width="46.063" height="36.313" viewBox="0 0 46.063 36.313"><defs><style>.a{fill:#279dd4;}</style></defs><g transform="translate(0 0)"><path class="a" d="M160.608,339.135a2.927,2.927,0,0,1,.613-1.7.9.9,0,0,0-1.354-1.185,4.458,4.458,0,0,0,0,5.763,2.924,2.924,0,0,1,.618,1.7.9.9,0,1,0,1.8,0,4.646,4.646,0,0,0-1.054-2.879A2.926,2.926,0,0,1,160.608,339.135Z" transform="translate(-144.521 -310.595)"/><path class="a" d="M238.257,339.135a2.926,2.926,0,0,1,.613-1.7.9.9,0,0,0-1.354-1.185,4.458,4.458,0,0,0,0,5.768,2.659,2.659,0,0,1,0,3.4.9.9,0,0,0,1.358,1.181,4.458,4.458,0,0,0,0-5.763A2.926,2.926,0,0,1,238.257,339.135Z" transform="translate(-215.185 -310.595)"/><path class="a" d="M315.907,339.135a2.927,2.927,0,0,1,.613-1.7.9.9,0,0,0-1.354-1.185,4.458,4.458,0,0,0,0,5.762,2.925,2.925,0,0,1,.617,1.7.9.9,0,1,0,1.8,0,4.645,4.645,0,0,0-1.054-2.879A2.928,2.928,0,0,1,315.907,339.135Z" transform="translate(-285.849 -310.595)"/><path class="a" d="M42.224,54.186H3.84A3.844,3.844,0,0,0,0,58.026V70.188A3.846,3.846,0,0,0,2.94,73.92v2.915a.9.9,0,0,0,.9.9H42.178a.9.9,0,0,0,.9-.9v-2.9a3.845,3.845,0,0,0,2.985-3.743V58.026a3.844,3.844,0,0,0-3.84-3.84Zm-.945,21.75H4.739V74.028l25.946.006h0a.9.9,0,0,0,.9-.9s0,0,0,0,0,0,0,0v-.011a.9.9,0,0,0-1.038-.889H4.85a4.167,4.167,0,0,1,.166-.581c.369-1,.906-1.123,1.332-1.123H39.671c.426,0,.962.128,1.332,1.123a4.182,4.182,0,0,1,.166.581H38.741a.9.9,0,0,0-1.038.889v.011s0,0,0,0,0,0,0,0a.9.9,0,0,0,.9.9h0l2.674,0v1.906Zm2.985-5.747a2.043,2.043,0,0,1-1.285,1.895c-.272-1.516-1.161-3.358-3.308-3.358H6.348c-2.14,0-3.03,1.828-3.305,3.341A2.043,2.043,0,0,1,1.8,70.188V58.026a2.043,2.043,0,0,1,2.04-2.04H42.224a2.043,2.043,0,0,1,2.04,2.04V70.188Z" transform="translate(0 -54.186)"/><path class="a" d="M71.129,96.276H61.454a.9.9,0,0,0-.9.9v4.3a.9.9,0,0,0,.9.9h9.676a.9.9,0,0,0,.9-.9v-4.3A.9.9,0,0,0,71.129,96.276Zm-.9,4.3H62.353v-2.5H70.23Z" transform="translate(-55.106 -92.489)"/><path class="a" d="M405.925,96.276h-4.547a.9.9,0,0,0,0,1.8h4.547a.9.9,0,0,0,0-1.8Z" transform="translate(-364.448 -92.489)"/><path class="a" d="M211.728,144.7a.9.9,0,1,0-.487,1.175A.907.907,0,0,0,211.728,144.7Z" transform="translate(-191.106 -136.05)"/><path class="a" d="M250.753,144.692a.9.9,0,1,0-.486,1.175A.907.907,0,0,0,250.753,144.692Z" transform="translate(-226.621 -136.046)"/><path class="a" d="M377.367,255.294a.9.9,0,1,0-.313,1.079A.907.907,0,0,0,377.367,255.294Z" transform="translate(-341.841 -236.696)"/></g></svg>