<svg xmlns="http://www.w3.org/2000/svg" width="40.262" height="42.812" viewBox="0 0 40.262 42.812"><defs><style>.a{fill:#279dd4;}</style></defs><g transform="translate(0 0)"><path class="a" d="M55.509,27.506a2.587,2.587,0,0,0-2.584-2.584H50.793l-.49-1.155a3.378,3.378,0,0,0-2.028-1.931,21.2,21.2,0,0,0-3.821-.79,28.881,28.881,0,0,0-4.858-.3q-.411,0-.809.013a3.637,3.637,0,0,0,.048-.576V3.631A3.635,3.635,0,0,0,35.206,0H18.877a3.634,3.634,0,0,0-3.63,3.631.836.836,0,0,0,1.672,0,1.96,1.96,0,0,1,1.957-1.958H35.206a1.96,1.96,0,0,1,1.957,1.958V20.177a1.96,1.96,0,0,1-.114.659,28.4,28.4,0,0,0-5.2.786,5.065,5.065,0,0,0-1.388.514H18.877a1.96,1.96,0,0,1-1.957-1.958V11.051a.836.836,0,1,0-1.672,0v9.126a3.634,3.634,0,0,0,3.63,3.631H29.066l-.472,1.113H26.461a2.584,2.584,0,0,0-.632,5.09,3.72,3.72,0,0,0-.561,1.958V40.9a1.914,1.914,0,0,0,1.912,1.912h3.49A1.914,1.914,0,0,0,32.581,40.9V39.294H46.928V40.9a1.914,1.914,0,0,0,1.912,1.912h3.489A1.914,1.914,0,0,0,54.241,40.9V31.97a3.72,3.72,0,0,0-.58-1.987,2.588,2.588,0,0,0,1.848-2.477ZM51.717,37.621H50.511v-.85a2.227,2.227,0,0,0-2.224-2.225H46.9a2.227,2.227,0,0,0-2.224,2.225v.85h-9.9v-.85a2.227,2.227,0,0,0-2.224-2.225H31.156a2.227,2.227,0,0,0-2.224,2.225v.85h-1.14a.852.852,0,0,1-.851-.853s0-.005,0-.008V31.97a2.041,2.041,0,0,1,.631-1.472l.085-.081.23.768a2.856,2.856,0,0,0,2.753,2.05H49.162a2.88,2.88,0,0,0,2.705-1.9l.235-.656a2.043,2.043,0,0,1,.467,1.3v4.794s0,0,0,0a.854.854,0,0,1-.852.853ZM29.3,30.09H50.535l-.242.676a1.2,1.2,0,0,1-1.131.8H30.639a1.194,1.194,0,0,1-1.151-.857Zm10.333-7.677h.114a29.112,29.112,0,0,1,8.008,1.013,1.712,1.712,0,0,1,1,.994h0l1.695,4H28.928l1.7-4a1.875,1.875,0,0,1,.6-.78,4.6,4.6,0,0,1,1.765-.567c.711-.153,1.429-.27,2.15-.364A35.893,35.893,0,0,1,39.636,22.413ZM25.549,27.506a.913.913,0,0,1,.911-.912h1.424l-.774,1.824h-.65a.913.913,0,0,1-.911-.912ZM30.909,40.9a.24.24,0,0,1-.239.24H27.18a.24.24,0,0,1-.239-.24V39.146a2.528,2.528,0,0,0,.852.148h3.117V40.9ZM30.6,37.621v-.85a.553.553,0,0,1,.552-.553h1.389a.553.553,0,0,1,.552.553v.85Zm15.742-.85a.553.553,0,0,1,.552-.553h1.389a.553.553,0,0,1,.552.553v.85H46.346v-.85ZM52.569,40.9a.24.24,0,0,1-.239.24H48.84a.24.24,0,0,1-.239-.24V39.294h3.117a2.529,2.529,0,0,0,.852-.148V40.9Zm.357-12.482h-.65L51.5,26.594h1.423a.912.912,0,0,1,0,1.824Z" transform="translate(-15.247 0)"/><path class="a" d="M81.166,60.777A.836.836,0,0,0,82,59.941V57.007h2.691a6.257,6.257,0,0,0,0-12.514H77.732a.836.836,0,0,0-.836.836V59.941a.836.836,0,0,0,.836.836h3.434Zm-2.6-14.611h6.125a4.585,4.585,0,0,1,0,9.17H81.166a.836.836,0,0,0-.836.836V59.1H78.568Z" transform="translate(-71.741 -40.773)"/><path class="a" d="M118.8,91.218h3.527a2.822,2.822,0,0,0,0-5.644H118.8a.836.836,0,0,0-.836.836v3.972A.836.836,0,0,0,118.8,91.218Zm.836-3.972h2.691a1.15,1.15,0,0,1,0,2.3h-2.691Z" transform="translate(-109.372 -78.419)"/><path class="a" d="M15.42,79.912a.836.836,0,1,0,.232-1.159A.845.845,0,0,0,15.42,79.912Z" transform="translate(-15.28 -72.042)"/></g></svg>