<svg xmlns="http://www.w3.org/2000/svg" width="42.805" height="42.802" viewBox="0 0 42.805 42.802"><defs><style>.a{fill:#fff;}</style></defs><path class="a" d="M40.647,33.724a3.2,3.2,0,0,0-2.122-2.84V14.993l1,.605a2.14,2.14,0,1,0,2.271-3.629L22.545.341a2.144,2.144,0,0,0-2.27-.007L1,11.974a2.14,2.14,0,0,0,.666,3.9,2.166,2.166,0,0,0,.481.054A2.1,2.1,0,0,0,3.27,15.6l1.012-.61V30.884a3.2,3.2,0,0,0-2.122,2.84A3.214,3.214,0,0,0,0,36.751a3.151,3.151,0,0,0,.708,1.985A1.423,1.423,0,0,0,0,39.961v1.427a1.427,1.427,0,0,0,1.427,1.427h39.95a1.427,1.427,0,0,0,1.427-1.427V39.961a1.427,1.427,0,0,0-.709-1.226,3.148,3.148,0,0,0,.709-1.984A3.214,3.214,0,0,0,40.647,33.724Zm-1.409.173a1.093,1.093,0,0,1-.016.214.367.367,0,0,0,0,.038c0,.013-.011.023-.012.036a.577.577,0,0,0,.008.106.482.482,0,0,0,.059.269.655.655,0,0,0,.059.117.7.7,0,0,0,.094.1.719.719,0,0,0,.1.087.7.7,0,0,0,.13.06.713.713,0,0,0,.1.043.384.384,0,0,0,.051.006c.008,0,.013.007.021.007a1.784,1.784,0,0,1-.232,3.552H31.748a1.783,1.783,0,0,1-1.783-1.783,1.755,1.755,0,0,1,.532-1.263,1.7,1.7,0,0,1,.8-.458h0a.709.709,0,0,0,.194-.083c.01-.007.015-.017.024-.024a.718.718,0,0,0,.108-.1.677.677,0,0,0,.084-.1.692.692,0,0,0,.056-.124.738.738,0,0,0,.044-.128,1.509,1.509,0,0,0,0-.277v-.033a.653.653,0,0,0-.048-.1.747.747,0,0,0-.038-.1,2.1,2.1,0,0,1-.328-1.135,2.135,2.135,0,0,1,4.125-.779,1.933,1.933,0,0,1,.155.779,2.125,2.125,0,0,1-.289,1.07.713.713,0,1,0,1.235.713,3.574,3.574,0,0,0,.481-1.783,3.513,3.513,0,0,0-.064-.656,1.762,1.762,0,0,1,.421-.057A1.783,1.783,0,0,1,39.238,33.9Zm-9.274-3.21V27.834h1.427v2.159a3.568,3.568,0,0,0-1.067,1.3A.7.7,0,0,1,29.964,30.687Zm3.567-7.134a.713.713,0,0,1,.713.713v2.14H32.818V23.553Zm0,5.707a3.561,3.561,0,0,0-.714.071v-1.5h1.427V29.34A3.565,3.565,0,0,0,33.531,29.26Zm-2.14-2.853H29.964v-2.14a.713.713,0,0,1,.714-.713h.713ZM2.522,14.389a.713.713,0,0,1-.771-1.2L21.024,1.547a.708.708,0,0,1,.379-.109.738.738,0,0,1,.394.116l19.25,11.628a.714.714,0,1,1-.77,1.2l-18.5-11.2a.712.712,0,0,0-.739,0ZM21.4,4.632l15.694,9.5V30.712a3.15,3.15,0,0,0-.616.133,3.51,3.51,0,0,0-.811-.865V24.267a2.14,2.14,0,0,0-2.14-2.14H30.678a2.14,2.14,0,0,0-2.14,2.14v6.421A2.135,2.135,0,0,0,29.977,32.7c0,.043-.013.084-.013.128a3.548,3.548,0,0,0,.194,1.137,3.069,3.069,0,0,0-.673.516,3.2,3.2,0,0,0-.4,4.054h-1.97V23.553A2.853,2.853,0,0,0,24.257,20.7H18.55A2.854,2.854,0,0,0,15.7,23.553V38.534h-1.97a3.192,3.192,0,0,0,.543-1.783,3.155,3.155,0,0,0-.938-2.261,3.1,3.1,0,0,0-.683-.525,3.533,3.533,0,0,0,.195-1.138c0-.045-.006-.085-.008-.129a2.14,2.14,0,0,0,1.435-2.011V24.267a2.14,2.14,0,0,0-2.14-2.14H9.276a2.14,2.14,0,0,0-2.14,2.14v5.721a3.648,3.648,0,0,0-.808.856,3.2,3.2,0,0,0-.619-.132V14.128Zm4.28,33.9h-8.56V23.553a1.427,1.427,0,0,1,1.427-1.427h5.707a1.427,1.427,0,0,1,1.427,1.427ZM12.13,23.553a.713.713,0,0,1,.713.713v2.14H11.416V23.553Zm.357,7.735A3.566,3.566,0,0,0,11.416,30V27.834h1.427v2.853A.7.7,0,0,1,12.486,31.289Zm-2.5-4.882H8.563v-2.14a.713.713,0,0,1,.714-.713h.713ZM8.563,27.834H9.989v1.512a3.63,3.63,0,0,0-1.427,0ZM2.982,34.982c.008,0,.013-.006.021-.007a.341.341,0,0,0,.051-.008.721.721,0,0,0,.1-.043.7.7,0,0,0,.128-.059.687.687,0,0,0,.1-.09.729.729,0,0,0,.092-.1.736.736,0,0,0,.06-.121.478.478,0,0,0,.058-.268.693.693,0,0,0,.008-.1c0-.013-.01-.023-.012-.036a.21.21,0,0,1,0-.038,1.122,1.122,0,0,1-.018-.212,1.784,1.784,0,0,1,1.784-1.784,1.751,1.751,0,0,1,.422.057,3.486,3.486,0,0,0-.065.656,3.582,3.582,0,0,0,.48,1.783A.714.714,0,0,0,7.426,33.9a2.118,2.118,0,0,1-.29-1.07,1.98,1.98,0,0,1,.163-.8,2.134,2.134,0,0,1,4.051.28,1.878,1.878,0,0,1,.066.52,2.1,2.1,0,0,1-.326,1.133.663.663,0,0,0-.038.1.628.628,0,0,0-.048.1v.034a1.508,1.508,0,0,0,0,.277.738.738,0,0,0,.044.128.451.451,0,0,0,.14.22.731.731,0,0,0,.108.1c.009.007.014.017.024.024a.71.71,0,0,0,.194.084h0a1.711,1.711,0,0,1,.807.467,1.746,1.746,0,0,1,.52,1.256,1.783,1.783,0,0,1-1.783,1.783H3.212a1.783,1.783,0,0,1-.23-3.552ZM1.429,39.961H12.843v1.427H1.429ZM14.27,41.388V39.961H28.537v1.427Zm15.695,0V39.961H41.379v1.427Zm0,0" transform="translate(-0.001 -0.013)"/><path class="a" d="M274.509,367.647a.713.713,0,1,1-.714-.714A.713.713,0,0,1,274.509,367.647Zm0,0" transform="translate(-250.253 -336.259)"/><path class="a" d="M206.243,105.281h5.707a1.427,1.427,0,0,0,1.427-1.427V98.147a4.28,4.28,0,1,0-8.56,0v5.707A1.427,1.427,0,0,0,206.243,105.281Zm0-4.281h2.14v2.854h-2.14Zm3.567,2.854V101h2.14v2.854Zm2.14-5.707v1.427h-2.14V95.4A2.854,2.854,0,0,1,211.95,98.147ZM208.383,95.4v4.179h-2.14V98.147A2.854,2.854,0,0,1,208.383,95.4Zm0,0" transform="translate(-187.694 -86.021)"/></svg>