<svg xmlns="http://www.w3.org/2000/svg" width="46.095" height="45.555" viewBox="0 0 46.095 45.555"><defs><style>.a{fill:#269dd4;}</style></defs><g transform="translate(27.005 22.796)"><path class="a" d="M303.735,262.7a1.732,1.732,0,1,1,1.981-1.714.9.9,0,0,0,1.8,0,3.582,3.582,0,0,0-2.881-3.414V257.1a.9.9,0,1,0-1.8,0v.468a3.582,3.582,0,0,0-2.881,3.414,3.659,3.659,0,0,0,3.781,3.515,1.732,1.732,0,1,1-1.981,1.714.9.9,0,1,0-1.8,0,3.582,3.582,0,0,0,2.881,3.413v.389a.9.9,0,1,0,1.8,0v-.389a3.582,3.582,0,0,0,2.881-3.413A3.66,3.66,0,0,0,303.735,262.7Z" transform="translate(-299.954 -256.201)"/></g><g transform="translate(34.565 19.607)"><path class="a" d="M390.006,225.114a11.73,11.73,0,0,0-4.792-4.24.9.9,0,1,0-.78,1.623,9.912,9.912,0,0,1,4.464,13.576.9.9,0,1,0,1.59.846,11.717,11.717,0,0,0-.482-11.8Z" transform="translate(-383.924 -220.785)"/></g><g transform="translate(31.24 18.546)"><path class="a" d="M347.961,209H347.9a.9.9,0,1,0,0,1.8h.056a.9.9,0,0,0,0-1.8Z" transform="translate(-347 -209.001)"/></g><g transform="translate(19.087 24.282)"><path class="a" d="M219.421,287.61a9.912,9.912,0,0,1-4.464-13.576.9.9,0,1,0-1.59-.846,11.709,11.709,0,0,0,5.274,16.044.9.9,0,1,0,.78-1.623Z" transform="translate(-212.002 -272.711)"/></g><g transform="translate(28.484 40.153)"><path class="a" d="M317.334,449h-.052a.9.9,0,0,0-.008,1.8h.06a.9.9,0,1,0,0-1.8Z" transform="translate(-316.378 -448.999)"/></g><g transform="translate(0 0)"><g transform="translate(0 0)"><path class="a" d="M34.878,18.5a4.132,4.132,0,0,0-.4-.735h2.344a4.141,4.141,0,0,0,0-8.283h-7.21A4.139,4.139,0,0,0,26.2,3H4.141a4.141,4.141,0,1,0,0,8.283h7.21a4.13,4.13,0,0,0,0,4.682H9a4.139,4.139,0,0,0-2.574,7.382,4.134,4.134,0,0,0,0,6.482,4.134,4.134,0,0,0,0,6.482A4.139,4.139,0,0,0,9,43.694h10.61A15.3,15.3,0,1,0,34.878,18.5Zm1.944-7.218a2.341,2.341,0,0,1,0,4.682H14.765a2.341,2.341,0,0,1,0-4.682ZM4.141,9.482a2.341,2.341,0,1,1,0-4.682H26.2a2.341,2.341,0,0,1,0,4.682ZM9,17.765H31.06A2.339,2.339,0,0,1,32.082,18c-.426-.036-.856-.055-1.291-.055a15.258,15.258,0,0,0-10.831,4.5H9a2.341,2.341,0,1,1,0-4.682Zm0,6.482h9.418a15.262,15.262,0,0,0-2.314,4.682H9a2.341,2.341,0,1,1,0-4.682Zm0,6.482h6.691a15.317,15.317,0,0,0-.056,4.682H9a2.341,2.341,0,1,1,0-4.682ZM9,41.893a2.341,2.341,0,1,1,0-4.682h7a15.245,15.245,0,0,0,2.16,4.682ZM30.79,46.755a13.5,13.5,0,1,1,13.5-13.5A13.52,13.52,0,0,1,30.79,46.755Z" transform="translate(0 -3)"/></g></g></svg>