<svg xmlns="http://www.w3.org/2000/svg" width="42.799" height="42.812" viewBox="0 0 42.799 42.812"><defs><style>.a{fill:#279dd4;}</style></defs><path class="a" d="M220.152,331.621a.836.836,0,1,0-1.183,0A.837.837,0,0,0,220.152,331.621Zm0,0" transform="translate(-200.477 -302.583)"/><path class="a" d="M188.449,9.2a9.2,9.2,0,1,0,9.2-9.2A9.206,9.206,0,0,0,188.449,9.2Zm16.719,0a7.524,7.524,0,1,1-7.524-7.523A7.532,7.532,0,0,1,205.168,9.2Zm0,0" transform="translate(-172.733)"/><path class="a" d="M10.13,237.131a.836.836,0,0,0,1.18.007l4.053-3.993a2.526,2.526,0,0,0,.6-2.594l.872-.841a2.493,2.493,0,0,1,1.741-.7H29.683a7.485,7.485,0,0,0,5.248-2.132c.058-.057-.441.532,7.581-9.057a3.344,3.344,0,0,0-5.088-4.34l-4.933,5.07a3.36,3.36,0,0,0-2.6-1.244H20.57a10.785,10.785,0,0,0-4.186-.836,10.342,10.342,0,0,0-9.427,5.345,2.5,2.5,0,0,0-2.236.693L.745,226.494a.836.836,0,0,0,0,1.179Zm6.254-18.991a9.126,9.126,0,0,1,3.68.766.834.834,0,0,0,.335.07h9.493a1.672,1.672,0,1,1,0,3.344h-6.82a.836.836,0,0,0,0,1.672h6.82a3.339,3.339,0,0,0,3.314-3.781c4.772-4.905,5.445-5.594,5.473-5.629a1.672,1.672,0,1,1,2.553,2.16l-7.5,8.963a5.821,5.821,0,0,1-4.052,1.63H18.57a4.156,4.156,0,0,0-2.9,1.172l-.71.686-6.549-6.549A8.631,8.631,0,0,1,16.384,218.139ZM5.9,223.687a.834.834,0,0,1,1.035-.118c.145.088-.271-.29,7.24,7.211a.838.838,0,0,1,0,1.178l-3.455,3.4-8.214-8.277Zm0,0" transform="translate(-0.501 -194.566)"/><path class="a" d="M267.512,40.824v.98a2.508,2.508,0,0,0,.836,4.872.836.836,0,0,1,0,1.672,1.512,1.512,0,0,1-1.085-.632.836.836,0,1,0-1.28,1.076,3.467,3.467,0,0,0,1.529,1.089v.976a.836.836,0,1,0,1.672,0v-.98A2.508,2.508,0,0,0,268.348,45a.836.836,0,0,1,0-1.672,1.342,1.342,0,0,1,.9.437.836.836,0,1,0,1.163-1.2,3.229,3.229,0,0,0-1.231-.77v-.974a.836.836,0,1,0-1.672,0Zm0,0" transform="translate(-243.604 -36.645)"/></svg>