<svg xmlns="http://www.w3.org/2000/svg" width="48.441" height="42.708" viewBox="0 0 48.441 42.708"><defs><style>.a{fill:#279dd4;}</style></defs><path class="a" d="M83.592,64.426H51.163a.811.811,0,0,0-.811.811v22.7a.811.811,0,0,0,.811.81H83.592a.81.81,0,0,0,.81-.81v-22.7A.811.811,0,0,0,83.592,64.426Zm-30.854,22.7,6.532-9.145,3.576,5-2.419,4.147Zm9.567,0,9.937-17.037L82.18,87.126ZM82.781,66.047V84.938L72.942,68.074a.844.844,0,0,0-1.4,0l-7.8,13.377-3.81-5.329a.807.807,0,0,0-1.32-.007l-6.636,9.291V66.047Zm0,0" transform="translate(-43.157 -55.234)"/><path class="a" d="M48.362,30.1l-2.251-8.4V6.859a2.432,2.432,0,0,0-2.432-2.432h-2.2l-.675-2.533A2.437,2.437,0,0,0,37.827.182L21.975,4.427H4.764A2.432,2.432,0,0,0,2.332,6.859V9.69L1.8,9.83A2.446,2.446,0,0,0,.081,12.809l2.251,8.4V36.046a2.432,2.432,0,0,0,2.432,2.432h2.2l.675,2.532a2.428,2.428,0,0,0,2.976,1.713h0l15.852-4.245H43.679a2.432,2.432,0,0,0,2.432-2.433v-2.83l.529-.141A2.445,2.445,0,0,0,48.362,30.1ZM38.247,1.752a.811.811,0,0,1,.991.567L39.8,4.427H28.243ZM1.648,12.392a.82.82,0,0,1,.575-1l.108-.028v3.577ZM10.2,41.157A.811.811,0,0,1,9.2,40.59l-.564-2.112H20.2ZM44.49,36.046a.81.81,0,0,1-.81.81H4.764a.81.81,0,0,1-.81-.81V6.859a.81.81,0,0,1,.81-.81H43.679a.81.81,0,0,1,.81.81Zm1.729-4.54-.108.031V27.96l.684,2.552A.82.82,0,0,1,46.219,31.506Zm0,0" transform="translate(-0.001 -0.099)"/><path class="a" d="M116,99.282a3.243,3.243,0,1,0-3.243-3.242A3.243,3.243,0,0,0,116,99.282Zm0-4.864a1.621,1.621,0,1,1-1.622,1.622A1.621,1.621,0,0,1,116,94.418Zm0,0" transform="translate(-96.649 -79.551)"/></svg>