<svg xmlns="http://www.w3.org/2000/svg" width="40.602" height="36.657" viewBox="0 0 40.602 36.657"><defs><style>.a{fill:#279dd4;}</style></defs><path class="a" d="M36.32,0H10.066A4.116,4.116,0,0,0,5.933,4.086L5.764,27.2H.64A.667.667,0,0,0,0,27.889v3.182a5.575,5.575,0,0,0,5.26,5.548v.038H27.369v-.043c.164.007.264.043.377.043h.016a5.558,5.558,0,0,0,5.525-5.587V10.849h6.674a.673.673,0,0,0,.64-.692V4.32A4.312,4.312,0,0,0,36.32,0ZM5.548,35.341h0A4.261,4.261,0,0,1,1.315,31.07V28.52H22.191v2.539a5.565,5.565,0,0,0,1.625,3.949,2.361,2.361,0,0,1,.346.334Zm26.424-4.272a4.246,4.246,0,0,1-4.211,4.272h-.013a4.272,4.272,0,0,1-4.241-4.282v-3.17a.681.681,0,0,0-.658-.684H7.079L7.248,4.091a2.8,2.8,0,0,1,2.817-2.776h23.15a4.487,4.487,0,0,0-1.244,3.022ZM39.287,4.331v5.2h-6v-5.2A3.045,3.045,0,0,1,36.3,1.315h.018a3,3,0,0,1,2.967,3.011Zm0,0" transform="translate(0)"/><path class="a" d="M165.04,65.355l3.39,2.318a.647.647,0,0,0,.735,0l3.38-2.317a5.107,5.107,0,0,0,2.041-3.9V56.771a.643.643,0,0,0-.351-.59l-5.162-2.539a.646.646,0,0,0-.575,0l-5.152,2.532a.642.642,0,0,0-.35.59v4.7A5.107,5.107,0,0,0,165.04,65.355Zm-.728-8.181,4.479-2.21,4.479,2.216v4.28a3.789,3.789,0,0,1-1.468,2.809l-3.019,2.065-3.007-2.064a3.787,3.787,0,0,1-1.465-2.809Zm0,0" transform="translate(-149.6 -49.171)"/><path class="a" d="M203.056,119.867a.657.657,0,0,0,.466.2h0a.658.658,0,0,0,.465-.195l2.616-2.617a.658.658,0,1,0-.93-.931l-2.148,2.148-.859-.867a.658.658,0,0,0-.935.926Zm0,0" transform="translate(-184.976 -106.585)"/><path class="a" d="M149.438,248h-15.78a.658.658,0,1,0,0,1.315h15.78a.658.658,0,1,0,0-1.315Zm0,0" transform="translate(-122.069 -227.617)"/><path class="a" d="M149.438,285h-15.78a.658.658,0,1,0,0,1.315h15.78a.658.658,0,1,0,0-1.315Zm0,0" transform="translate(-122.069 -261.576)"/></svg>