<svg xmlns="http://www.w3.org/2000/svg" width="214" height="22" viewBox="0 0 214 22">
  <g id="Group_16783" data-name="Group 16783" transform="translate(-18 -26.957)">
    <g id="hotech" transform="translate(18 29.092)">
      <path id="Path_404" data-name="Path 404" d="M41.7,21.436A1.325,1.325,0,0,1,43.035,20.1a1.355,1.355,0,0,1,1.37,1.336v5.1A4.3,4.3,0,0,1,48.1,24.471c2.654,0,4.2,1.786,4.2,4.51v6.313a1.314,1.314,0,0,1-1.336,1.336,1.355,1.355,0,0,1-1.37-1.336V29.813c0-1.838-.919-2.879-2.532-2.879a2.623,2.623,0,0,0-2.654,2.931v5.429a1.353,1.353,0,0,1-2.706,0Z" transform="translate(-41.7 -20.1)" fill="#fff"/>
      <path id="Path_405" data-name="Path 405" d="M189.713,39.3V33.089h-.451a1.162,1.162,0,0,1,0-2.324h.451V28.736a1.353,1.353,0,0,1,2.706,0v2.012h2.116a1.162,1.162,0,1,1,0,2.324h-2.116v5.793a1.286,1.286,0,0,0,1.457,1.474,6.294,6.294,0,0,0,.676-.069,1.137,1.137,0,0,1,1.145,1.11,1.175,1.175,0,0,1-.711,1.058,5.274,5.274,0,0,1-1.856.312c-2.012.017-3.417-.85-3.417-3.452" transform="translate(-162.708 -26.134)" fill="#fff"/>
      <path id="Path_406" data-name="Path 406" d="M238.553,57.632a5.886,5.886,0,0,1-6.053-6.123v-.052a5.865,5.865,0,0,1,5.776-6.157,5.586,5.586,0,0,1,5.62,5.81,1.27,1.27,0,0,1-1.266,1.3h-7.406a3.3,3.3,0,0,0,3.4,3,4.238,4.238,0,0,0,2.792-1.023,1.023,1.023,0,0,1,.694-.243,1.063,1.063,0,0,1,1.075,1.093,1.194,1.194,0,0,1-.364.833,6.167,6.167,0,0,1-4.267,1.561m2.688-7.007c-.173-1.752-1.214-3.1-3-3.1-1.648,0-2.81,1.266-3.07,3.1Z" transform="translate(-199.407 -40.929)" fill="#fff"/>
      <path id="Path_407" data-name="Path 407" d="M302.6,51.527v-.052a6.107,6.107,0,0,1,6.157-6.175,6.021,6.021,0,0,1,4.145,1.474,1.286,1.286,0,0,1,.416.937,1.229,1.229,0,0,1-1.249,1.231,1.45,1.45,0,0,1-.8-.26,3.717,3.717,0,0,0-2.532-1.006,3.565,3.565,0,0,0-3.417,3.764v.052a3.58,3.58,0,0,0,3.538,3.781,3.927,3.927,0,0,0,2.636-1.058,1.142,1.142,0,0,1,1.908.885,1.066,1.066,0,0,1-.382.85,5.8,5.8,0,0,1-4.3,1.682,6.041,6.041,0,0,1-6.123-6.105" transform="translate(-257.349 -40.929)" fill="#fff"/>
      <path id="Path_408" data-name="Path 408" d="M371,21.436a1.325,1.325,0,0,1,1.336-1.336,1.355,1.355,0,0,1,1.37,1.336v5.1a4.3,4.3,0,0,1,3.694-2.064c2.654,0,4.2,1.786,4.2,4.51v6.313a1.314,1.314,0,0,1-1.336,1.336,1.344,1.344,0,0,1-1.37-1.336V29.813c0-1.838-.919-2.879-2.532-2.879a2.623,2.623,0,0,0-2.654,2.931v5.429a1.353,1.353,0,0,1-2.706,0Z" transform="translate(-313.885 -20.1)" fill="#fff"/>
      <path id="Path_409" data-name="Path 409" d="M162.978,84.335a1.867,1.867,0,0,1-.711.711,1.911,1.911,0,0,1-1.925,0h0a3.073,3.073,0,0,1-1.544-2.688v-.416l.382-.225a3.1,3.1,0,0,1,3.1,0,1.9,1.9,0,0,1,.694,2.619" transform="translate(-138.488 -70.685)" fill="#2697d4"/>
      <path id="Path_410" data-name="Path 410" d="M115.263,55.554v.434l-.382.225a3.1,3.1,0,0,1-3.1,0,1.931,1.931,0,1,1,1.925-3.347h.017a3.109,3.109,0,0,1,1.544,2.688" transform="translate(-98.821 -46.969)" fill="#fcb655"/>
      <path id="Path_411" data-name="Path 411" d="M162.949,53.621a2.012,2.012,0,0,1-.85,2.6,2.947,2.947,0,0,1-2.931,0l-.468-.26v-.538a2.908,2.908,0,0,1,1.474-2.532l.087-.052a1.926,1.926,0,0,1,2.688.78" transform="translate(-138.407 -46.943)" fill="#00a79e"/>
      <path id="Path_412" data-name="Path 412" d="M114.793,81.468l.468.26v.538a2.908,2.908,0,0,1-1.474,2.532,1.994,1.994,0,0,1-2.671-.572,1.93,1.93,0,0,1,.659-2.723l.087-.052a2.905,2.905,0,0,1,2.931.017" transform="translate(-98.819 -70.489)" fill="#f16a4b"/>
      <path id="Path_413" data-name="Path 413" d="M140.268,39.724h0a3.089,3.089,0,0,1-1.561,2.688l-.382.225-.364-.208a3.126,3.126,0,0,1-1.561-2.688v-.017a1.932,1.932,0,0,1,1.925-1.925,1.893,1.893,0,0,1,1.943,1.925" transform="translate(-119.975 -34.729)" fill="#67b549"/>
      <path id="Path_414" data-name="Path 414" d="M138.789,91.425a3.089,3.089,0,0,1,1.561,2.688h0a1.932,1.932,0,0,1-.971,1.665,1.961,1.961,0,0,1-.954.26,1.932,1.932,0,0,1-1.925-1.925,3.089,3.089,0,0,1,1.561-2.688l.382-.225Z" transform="translate(-120.058 -78.868)" fill="#4666b0"/>
    </g>
    <text id="Employee_Portal" data-name="Employee Portal" transform="translate(92 44.957)" fill="#c2d8da" font-size="19" font-family="HelveticaNeue, Helvetica Neue"><tspan x="0" y="0">Employee Portal</tspan></text>
  </g>
</svg>
