<svg xmlns="http://www.w3.org/2000/svg" width="16.709" height="17.104" viewBox="0 0 16.709 17.104"><defs><style>.a{opacity:0.7;}.b{fill:#42b9c9;}</style></defs><g class="a"><g transform="translate(0 0)"><ellipse class="b" cx="2.459" cy="2.514" rx="2.459" ry="2.514" transform="translate(5.577)"/><path class="b" d="M8.766,224.246l-2.383,2.01a1.1,1.1,0,0,0,1.423,1.687l3.762-3.171C10.777,223.834,9.851,223.41,8.766,224.246Z" transform="translate(-5.992 -216.419)"/><path class="b" d="M27.714,58.829l0,0h0v1a2.128,2.128,0,1,0,1.273-.043v-.552l1.273-1.048c1.265.533,1.968,1.268,4.385,1.079a2.43,2.43,0,0,0,1.2-.425l1.435,1.625a2.127,2.127,0,1,0,1.628-.759,2.141,2.141,0,0,0-.456.05l-1.691-1.915a9.267,9.267,0,0,0,.826-5.933c-.009-.047.038-.113.072-.147.476-.481.9-1.015,1.379-1.493a4.077,4.077,0,0,1,.989-.751,1.148,1.148,0,0,1,1.147.237l0,.006c.5.608.143,1.221-.352,1.685-.438.41.214,1.073.65.665a2.128,2.128,0,0,0,.6-2.645,2.036,2.036,0,0,0-.442-.529,1.9,1.9,0,0,0-1.223-.479,2.5,2.5,0,0,0-1.355.565A26.728,26.728,0,0,0,36.8,51.307l-.024.025a1.133,1.133,0,0,1-.09.081s-4.477,3.7-7.073,5.852Z" transform="translate(-25.622 -46.861)"/></g></g></svg>