<svg xmlns="http://www.w3.org/2000/svg" width="10.484" height="16.807" viewBox="0 0 10.484 16.807"><defs><style>.a{opacity:0.7;}.b{fill:#42b9c9;}</style></defs><g class="a"><g transform="translate(0 0)"><ellipse class="b" cx="1.862" cy="1.862" rx="1.862" ry="1.862" transform="translate(3.429)"/><path class="b" d="M173.229,224.858a.792.792,0,0,0,1.159,1.081L176.121,224v2.266l-.231,6.553a.924.924,0,0,0,.891.956h.033a.924.924,0,0,0,.923-.892l.173-4.912h.721l.649,5a.924.924,0,0,0,.915.805.953.953,0,0,0,.12-.008.924.924,0,0,0,.8-1.035l-.916-6.973-.024-2.835L182.2,222a.81.81,0,0,0,.448-.535l.824-3.2a.81.81,0,0,0-1.568-.4l-.728,2.822-1.648.752h-2.881a.537.537,0,0,0-.125.016.785.785,0,0,0-.429.235Z" transform="translate(-173.016 -216.971)"/></g></g></svg>