<svg xmlns="http://www.w3.org/2000/svg" width="16.642" height="20.81" viewBox="0 0 16.642 20.81"><defs><style>.a{fill:#acacac;opacity:0.5;}</style></defs><path class="a" d="M7.64,2A2.081,2.081,0,1,1,5.56,4.081,2.081,2.081,0,0,1,7.64,2M6.08,7.2H9.2a2.081,2.081,0,0,1,2.08,2.081v5.723H9.721v7.8H5.56v-7.8H4V9.283A2.081,2.081,0,0,1,6.08,7.2M17,2a2.081,2.081,0,1,1-2.08,2.081A2.081,2.081,0,0,1,17,2m-1.56,5.2h3.12a2.081,2.081,0,0,1,2.08,2.081v5.723h-1.56v7.8h-4.16v-7.8h-1.56V9.283A2.081,2.081,0,0,1,15.441,7.2Z" transform="translate(-4 -2)"/></svg>